<?xml version="1.0" standalone="no"?>
<!DOCTYPE svg PUBLIC "-//W3C//DTD SVG 20010904//EN"
 "http://www.w3.org/TR/2001/REC-SVG-20010904/DTD/svg10.dtd">
<svg version="1.0" xmlns="http://www.w3.org/2000/svg"
 width="363.000000pt" height="363.000000pt" viewBox="0 0 363.000000 363.000000"
 preserveAspectRatio="xMidYMid meet">
<metadata>
Created by potrace 1.11, written by Peter Selinger 2001-2013
</metadata>
<g transform="translate(0.000000,363.000000) scale(0.100000,-0.100000)"
fill="#000000" stroke="none">
<path d="M1208 3397 l-578 -232 0 -221 0 -220 -261 -104 c-143 -57 -268 -110
-278 -116 -17 -12 -18 -60 -24 -806 -3 -436 -3 -864 1 -951 l7 -159 582 -294
581 -294 264 104 c145 57 394 156 553 219 160 63 560 221 890 352 330 130 603
240 607 244 4 3 8 224 9 491 l1 485 -570 285 -571 285 -3 430 -3 430 -300 152
c-165 83 -307 152 -315 151 -8 0 -275 -104 -592 -231z"/>
</g>
</svg>
